<svg viewBox="0 0 72 72" xmlns="http://www.w3.org/2000/svg"><path d="m31 60h10v6h-10z" fill="#ea5a47"/><path d="m46.6024 29.8248-2.9629-5.3871-1.6395-9.4377-.43.5168-2.6892-3.9185-4.8484-2.7834-5.2974-.808-6.0156 1.9753-4.2199 3.5016-2.2446 6.4646.1795 13.9167 2.9629 1.1672 2.0651-1.4365 1.257.8978 2.6936.5387 2.2446-1.257 1.7059 1.6162 3.8531-.5376-.106 5.7248.1762 4.7134.0264 4.3976c-.1944.3974-.3132.8381-.3132 1.3103 0 1.6569 1.3431 3 3 3 .1146 0 .2234-.0212.3347-.0338l.4434.21.6378-.5467c.384-.2073.7172-.4908.9775-.8378l.7545-.6467v-12.9768l-.0693-11.2142.3219 3.7311 1.2144 2.0484 4.6407 2.3762 2.8731-2.2446zm-13.1634 19.539.0033.088c-.018.0297-.0327.0613-.0497.0916z" fill="#fcea2b"/><g style="fill:none;stroke:#000;stroke-linecap:round;stroke-linejoin:round;stroke-miterlimit:10;stroke-width:2"><path d="m16.0039 21.4353c0-7.4632 6.0501-13.5133 13.5133-13.5133s13.5133 6.0501 13.5133 13.5133"/><path d="m16.0039 22.1527v9.8543"/><path d="m21.7459 32.2479c-.0665 1.586-1.4061 2.8177-2.9921 2.7512s-2.8177-1.4061-2.7512-2.9921"/><path d="m27.4917 32.4392c-.0665 1.586-1.4061 2.8177-2.9921 2.7512s-2.8177-1.4061-2.7512-2.9921"/><path d="m27.4884 32.5491c-.1273 1.5822-1.5131 2.7617-3.0954 2.6344-1.5822-.1273-2.7617-1.5131-2.6344-3.0954"/><path d="m33.2709 32.8319c-.1016 1.5841-1.4681 2.7859-3.0522 2.6843s-2.7859-1.4681-2.6843-3.0522"/><path d="m47.1932 31.0059c1.1028 1.1418 1.0712 2.9613-.0706 4.0641s-2.9613 1.0712-4.0641-.0706"/><path d="m39.0192 51.2038c0 1.5874-1.2868 2.8742-2.8742 2.8742s-2.8742-1.2868-2.8742-2.8742"/><path d="m33.2709 32.8624v18.3414"/><path d="m39.0192 51.2038v-22.8213"/><path d="m41.4506 33.1815 1.6079 1.8179"/><path d="m43.0305 21.2818c-.0592 3.5756 1.1075 6.0587 2.711 7.8192"/><path d="m45.6974 29.0513 1.4958 1.9546"/><path d="m20 65h8"/><path d="m44 65h8"/><path d="m31 65v-5"/><path d="m41 65v-5"/><path d="m30 60h12"/></g></svg>